<?xml version="1.0" encoding="UTF-8" standalone="no"?><!DOCTYPE svg PUBLIC "-//W3C//DTD SVG 1.1//EN" "http://www.w3.org/Graphics/SVG/1.1/DTD/svg11.dtd"><svg width="100%" height="100%" viewBox="0 0 130 130" version="1.1" xmlns="http://www.w3.org/2000/svg" xmlns:xlink="http://www.w3.org/1999/xlink" xml:space="preserve" xmlns:serif="http://www.serif.com/" style="fill-rule:evenodd;clip-rule:evenodd;stroke-linejoin:round;stroke-miterlimit:1.41421;"><path d="M42.445,112.52c3.178,1.538 6.561,2.768 10.047,3.588l0,-33.423l-10.047,-11.072l0,40.907Zm9.945,-76.893l0,-10.868c1.537,-0.512 3.075,-0.82 4.613,-1.127l0,-9.638c-7.689,1.128 -14.866,3.999 -21.017,8.202l6.459,7.075l0,18.966l10.047,11.073l0,-14.148l20.812,0l8.715,-9.535l-29.629,0Zm20.402,-21.735l0,9.637c5.331,1.025 10.355,2.973 14.763,5.742l6.459,-7.177c-6.254,-4.101 -13.533,-7.074 -21.222,-8.202Z" style="fill:#fff;"/></svg>